<svg width="24" height="24" viewBox="0 0 24 24" fill="none" xmlns="http://www.w3.org/2000/svg">
<path fill-rule="evenodd" clip-rule="evenodd" d="M22.75 12C22.75 17.9372 17.9372 22.75 12 22.75C6.06279 22.75 1.25 17.9372 1.25 12C1.25 6.06279 6.06279 1.25 12 1.25C17.9372 1.25 22.75 6.06279 22.75 12ZM12 21.25C17.1088 21.25 21.25 17.1088 21.25 12C21.25 6.89121 17.1088 2.75 12 2.75C6.89122 2.75 2.75 6.89121 2.75 12C2.75 17.1088 6.89121 21.25 12 21.25ZM15.25 12C15.25 12.4142 14.9142 12.75 14.5 12.75L8.5 12.75C8.08579 12.75 7.75 12.4142 7.75 12C7.75 11.5858 8.08579 11.25 8.5 11.25L14.5 11.25C14.9142 11.25 15.25 11.5858 15.25 12Z" fill="white"/>
<path fill-rule="evenodd" clip-rule="evenodd" d="M11.9697 15.5303C11.6768 15.2374 11.6768 14.7626 11.9697 14.4697L14.4393 12L11.9697 9.53033C11.6768 9.23744 11.6768 8.76256 11.9697 8.46967C12.2626 8.17678 12.7374 8.17678 13.0303 8.46967L16.0303 11.4697C16.3232 11.7626 16.3232 12.2374 16.0303 12.5303L13.0303 15.5303C12.7374 15.8232 12.2626 15.8232 11.9697 15.5303Z" fill="white"/>
</svg>
