<svg width="78" height="78" viewBox="0 0 78 78" fill="none" xmlns="http://www.w3.org/2000/svg">
<mask id="path-1-inside-1_127_222" fill="white">
<path d="M78 39C78 44.1216 76.9912 49.193 75.0313 53.9247C73.0714 58.6564 70.1986 62.9557 66.5772 66.5772C62.9557 70.1986 58.6563 73.0714 53.9247 75.0313C49.193 76.9912 44.1216 78 39 78C33.8784 78 28.807 76.9912 24.0753 75.0313C19.3436 73.0714 15.0443 70.1986 11.4228 66.5772C7.80135 62.9557 4.92863 58.6563 2.9687 53.9247C1.00876 49.193 -4.4774e-07 44.1216 0 39L39 39H78Z"/>
</mask>
<path d="M78 39C78 44.1216 76.9912 49.193 75.0313 53.9247C73.0714 58.6564 70.1986 62.9557 66.5772 66.5772C62.9557 70.1986 58.6563 73.0714 53.9247 75.0313C49.193 76.9912 44.1216 78 39 78C33.8784 78 28.807 76.9912 24.0753 75.0313C19.3436 73.0714 15.0443 70.1986 11.4228 66.5772C7.80135 62.9557 4.92863 58.6563 2.9687 53.9247C1.00876 49.193 -4.4774e-07 44.1216 0 39L39 39H78Z" fill="white" stroke="#151515" stroke-width="12" mask="url(#path-1-inside-1_127_222)"/>
<mask id="path-2-inside-2_127_222" fill="white">
<path d="M78 39.0001C78 33.8786 76.9912 28.8072 75.0313 24.0755C73.0714 19.3438 70.1986 15.0444 66.5772 11.423C62.9557 7.80148 58.6563 4.92876 53.9247 2.96882C49.193 1.00889 44.1216 0.00012207 39 0.00012207C33.8784 0.00012207 28.807 1.00889 24.0753 2.96882C19.3436 4.92876 15.0443 7.80148 11.4228 11.423C7.80135 15.0444 4.92863 19.3438 2.9687 24.0755C1.00876 28.8072 -4.4774e-07 33.8786 0 39.0001L39 39.0001H78Z"/>
</mask>
<path d="M78 39.0001C78 33.8786 76.9912 28.8072 75.0313 24.0755C73.0714 19.3438 70.1986 15.0444 66.5772 11.423C62.9557 7.80148 58.6563 4.92876 53.9247 2.96882C49.193 1.00889 44.1216 0.00012207 39 0.00012207C33.8784 0.00012207 28.807 1.00889 24.0753 2.96882C19.3436 4.92876 15.0443 7.80148 11.4228 11.423C7.80135 15.0444 4.92863 19.3438 2.9687 24.0755C1.00876 28.8072 -4.4774e-07 33.8786 0 39.0001L39 39.0001H78Z" fill="#E11B1D" stroke="#151515" stroke-width="12" mask="url(#path-2-inside-2_127_222)"/>
<circle cx="38.9995" cy="38.9998" r="10" fill="#D0D0D0" stroke="#151515" stroke-width="6"/>
</svg>
