<svg width="20" height="23" viewBox="0 0 20 23" fill="none" xmlns="http://www.w3.org/2000/svg">
<path fill-rule="evenodd" clip-rule="evenodd" d="M9.16667 3.64331C5.97733 3.64331 3.25 6.57097 3.25 10.3677C3.25 14.1644 5.97733 17.0921 9.16667 17.0921C12.356 17.0921 15.0833 14.1644 15.0833 10.3677C15.0833 6.57097 12.356 3.64331 9.16667 3.64331ZM1.75 10.3677C1.75 5.90844 4.99221 2.14331 9.16667 2.14331C13.3411 2.14331 16.5833 5.90844 16.5833 10.3677C16.5833 14.8269 13.3411 18.5921 9.16667 18.5921C4.99221 18.5921 1.75 14.8269 1.75 10.3677Z" fill="#7E7E7E"/>
<path fill-rule="evenodd" clip-rule="evenodd" d="M13.3758 15.0868C13.6849 14.8111 14.159 14.8381 14.4347 15.1473L18.0597 19.2115C18.3354 19.5206 18.3084 19.9947 17.9992 20.2704C17.6901 20.5461 17.216 20.519 16.9403 20.2099L13.3153 16.1457C13.0396 15.8366 13.0667 15.3625 13.3758 15.0868Z" fill="#7E7E7E"/>
</svg>
